<svg width="12" height="12" viewBox="0 0 12 12" fill="none" xmlns="http://www.w3.org/2000/svg">
<path d="M11.4545 0H7.09089C6.78964 0 6.54542 0.244219 6.54542 0.545461C6.54542 0.846703 6.78964 1.09092 7.09089 1.09092H10.1377L4.52341 6.70523C4.31043 6.91821 4.31043 7.26359 4.52341 7.47661C4.574 7.52733 4.63411 7.56755 4.7003 7.59497C4.76648 7.62238 4.83743 7.63645 4.90907 7.63636C4.98071 7.63645 5.05166 7.62239 5.11785 7.59497C5.18403 7.56755 5.24415 7.52732 5.29473 7.47659L10.9091 1.8623V4.9091C10.9091 5.21034 11.1533 5.45456 11.4545 5.45456C11.7558 5.45456 12 5.21034 12 4.9091V0.545461C12 0.244219 11.7558 0 11.4545 0Z" fill="#8C1057"/>
<path d="M9.2727 5.45454C8.97146 5.45454 8.72724 5.69876 8.72724 6V10.9091H1.0909V3.27272H5.99999C6.30123 3.27272 6.54545 3.0285 6.54545 2.72726C6.54545 2.42602 6.30123 2.18182 5.99999 2.18182H0.54546C0.244218 2.18182 0 2.42604 0 2.72728V11.4546C0 11.7558 0.244218 12 0.54546 12H9.27272C9.57397 12 9.81818 11.7558 9.81818 11.4545V6C9.81816 5.69876 9.57394 5.45454 9.2727 5.45454Z" fill="#8C1057"/>
</svg>
