<svg width="69" height="77" viewBox="0 0 69 77" fill="none" xmlns="http://www.w3.org/2000/svg">
<g filter="url(#filter0_d_48_13057)">
<rect x="2" y="2" width="65" height="73" fill="#EEF0F4"/>
</g>
<rect x="2" y="2" width="2.56579" height="73" fill="#2C5CB8"/>
<path d="M23.5498 38.9072C23.5498 40.0329 23.3333 40.974 22.9004 41.7305C22.472 42.4824 21.8499 43.0498 21.0342 43.4326C20.2184 43.8109 19.2363 44 18.0879 44H15.2578V34.0059H18.3955C19.4437 34.0059 20.3529 34.1927 21.123 34.5664C21.8932 34.9355 22.4902 35.4847 22.9141 36.2139C23.3379 36.9385 23.5498 37.8363 23.5498 38.9072ZM21.3486 38.9619C21.3486 38.2236 21.2393 37.6175 21.0205 37.1436C20.8063 36.665 20.4873 36.3118 20.0635 36.084C19.6442 35.8561 19.1247 35.7422 18.5049 35.7422H17.377V42.25H18.2861C19.3206 42.25 20.0885 41.9743 20.5898 41.4229C21.0957 40.8714 21.3486 40.0511 21.3486 38.9619ZM34.6924 38.9893C34.6924 39.7594 34.5967 40.4613 34.4053 41.0947C34.2139 41.7236 33.9222 42.266 33.5303 42.7217C33.1429 43.1774 32.6507 43.5283 32.0537 43.7744C31.4567 44.016 30.7503 44.1367 29.9346 44.1367C29.1188 44.1367 28.4124 44.016 27.8154 43.7744C27.2184 43.5283 26.724 43.1774 26.332 42.7217C25.9447 42.266 25.6553 41.7214 25.4639 41.0879C25.2725 40.4544 25.1768 39.7503 25.1768 38.9756C25.1768 37.9411 25.3454 37.041 25.6826 36.2754C26.0244 35.5052 26.5485 34.9082 27.2549 34.4844C27.9613 34.0605 28.859 33.8486 29.9482 33.8486C31.0329 33.8486 31.9238 34.0605 32.6211 34.4844C33.3229 34.9082 33.8424 35.5052 34.1797 36.2754C34.5215 37.0456 34.6924 37.9502 34.6924 38.9893ZM27.3984 38.9893C27.3984 39.6865 27.485 40.2881 27.6582 40.7939C27.8359 41.2952 28.1117 41.6826 28.4854 41.9561C28.859 42.2249 29.3421 42.3594 29.9346 42.3594C30.5361 42.3594 31.0238 42.2249 31.3975 41.9561C31.7712 41.6826 32.0423 41.2952 32.2109 40.7939C32.3841 40.2881 32.4707 39.6865 32.4707 38.9893C32.4707 37.9411 32.2747 37.1162 31.8828 36.5146C31.4909 35.9131 30.846 35.6123 29.9482 35.6123C29.3512 35.6123 28.8636 35.749 28.4854 36.0225C28.1117 36.2913 27.8359 36.6787 27.6582 37.1846C27.485 37.6859 27.3984 38.2874 27.3984 38.9893ZM41.0088 35.626C40.6032 35.626 40.2432 35.7057 39.9287 35.8652C39.6188 36.0202 39.3568 36.2458 39.1426 36.542C38.9329 36.8382 38.7734 37.196 38.6641 37.6152C38.5547 38.0345 38.5 38.5062 38.5 39.0303C38.5 39.7367 38.5866 40.3405 38.7598 40.8418C38.9375 41.3385 39.2109 41.7191 39.5801 41.9834C39.9492 42.2432 40.4255 42.373 41.0088 42.373C41.4144 42.373 41.82 42.3275 42.2256 42.2363C42.6357 42.1452 43.0801 42.0153 43.5586 41.8467V43.624C43.1165 43.8063 42.6813 43.9362 42.2529 44.0137C41.8245 44.0957 41.3438 44.1367 40.8105 44.1367C39.7806 44.1367 38.9329 43.9248 38.2676 43.501C37.6068 43.0726 37.1169 42.4756 36.7979 41.71C36.4788 40.9398 36.3193 40.042 36.3193 39.0166C36.3193 38.2601 36.4219 37.5674 36.627 36.9385C36.832 36.3096 37.1328 35.765 37.5293 35.3047C37.9258 34.8444 38.4157 34.4889 38.999 34.2383C39.5824 33.9876 40.2523 33.8623 41.0088 33.8623C41.5055 33.8623 42.0023 33.9261 42.499 34.0537C43.0003 34.1768 43.4788 34.3477 43.9346 34.5664L43.251 36.2891C42.8773 36.1113 42.5013 35.9564 42.123 35.8242C41.7448 35.6921 41.3734 35.626 41.0088 35.626ZM53.7715 44H51.3516L49.0273 40.2197L46.7031 44H44.4336L47.749 38.8457L44.6455 34.0059H46.9834L49.1367 37.6016L51.249 34.0059H53.5322L50.3945 38.9619L53.7715 44Z" fill="#2C5CB8"/>
<defs>
<filter id="filter0_d_48_13057" x="0.2" y="0.4" width="68.6" height="76.6" filterUnits="userSpaceOnUse" color-interpolation-filters="sRGB">
<feFlood flood-opacity="0" result="BackgroundImageFix"/>
<feColorMatrix in="SourceAlpha" type="matrix" values="0 0 0 0 0 0 0 0 0 0 0 0 0 0 0 0 0 0 127 0" result="hardAlpha"/>
<feOffset dy="0.2"/>
<feGaussianBlur stdDeviation="0.9"/>
<feComposite in2="hardAlpha" operator="out"/>
<feColorMatrix type="matrix" values="0 0 0 0 0 0 0 0 0 0 0 0 0 0 0 0 0 0 0.25 0"/>
<feBlend mode="normal" in2="BackgroundImageFix" result="effect1_dropShadow_48_13057"/>
<feBlend mode="normal" in="SourceGraphic" in2="effect1_dropShadow_48_13057" result="shape"/>
</filter>
</defs>
</svg>
