<svg width="69" height="77" viewBox="0 0 69 77" fill="none" xmlns="http://www.w3.org/2000/svg">
<g filter="url(#filter0_d_48_13012)">
<rect x="2" y="2" width="65" height="73" fill="#EEF0F4"/>
</g>
<rect x="2" y="2" width="2.56579" height="73" fill="#E20000"/>
<path d="M25.4502 34.0059C26.7399 34.0059 27.681 34.2839 28.2734 34.8398C28.8659 35.3913 29.1621 36.1523 29.1621 37.123C29.1621 37.5605 29.096 37.9798 28.9639 38.3809C28.8317 38.7773 28.6152 39.1305 28.3145 39.4404C28.0182 39.7503 27.6217 39.9964 27.125 40.1787C26.6283 40.3564 26.0153 40.4453 25.2861 40.4453H24.377V44H22.2578V34.0059H25.4502ZM25.3408 35.7422H24.377V38.709H25.0742C25.4707 38.709 25.8148 38.6566 26.1064 38.5518C26.3981 38.4469 26.6237 38.2829 26.7832 38.0596C26.9427 37.8363 27.0225 37.5492 27.0225 37.1982C27.0225 36.7061 26.8857 36.3415 26.6123 36.1045C26.3389 35.863 25.915 35.7422 25.3408 35.7422ZM39.3408 38.9072C39.3408 40.0329 39.1243 40.974 38.6914 41.7305C38.263 42.4824 37.641 43.0498 36.8252 43.4326C36.0094 43.8109 35.0273 44 33.8789 44H31.0488V34.0059H34.1865C35.2347 34.0059 36.1439 34.1927 36.9141 34.5664C37.6842 34.9355 38.2812 35.4847 38.7051 36.2139C39.1289 36.9385 39.3408 37.8363 39.3408 38.9072ZM37.1396 38.9619C37.1396 38.2236 37.0303 37.6175 36.8115 37.1436C36.5973 36.665 36.2783 36.3118 35.8545 36.084C35.4352 35.8561 34.9157 35.7422 34.2959 35.7422H33.168V42.25H34.0771C35.1117 42.25 35.8796 41.9743 36.3809 41.4229C36.8867 40.8714 37.1396 40.0511 37.1396 38.9619ZM43.4971 44H41.4121V34.0059H47.1406V35.7422H43.4971V38.3193H46.8877V40.0488H43.4971V44Z" fill="#E20000"/>
<defs>
<filter id="filter0_d_48_13012" x="0.2" y="0.4" width="68.6" height="76.6" filterUnits="userSpaceOnUse" color-interpolation-filters="sRGB">
<feFlood flood-opacity="0" result="BackgroundImageFix"/>
<feColorMatrix in="SourceAlpha" type="matrix" values="0 0 0 0 0 0 0 0 0 0 0 0 0 0 0 0 0 0 127 0" result="hardAlpha"/>
<feOffset dy="0.2"/>
<feGaussianBlur stdDeviation="0.9"/>
<feComposite in2="hardAlpha" operator="out"/>
<feColorMatrix type="matrix" values="0 0 0 0 0 0 0 0 0 0 0 0 0 0 0 0 0 0 0.25 0"/>
<feBlend mode="normal" in2="BackgroundImageFix" result="effect1_dropShadow_48_13012"/>
<feBlend mode="normal" in="SourceGraphic" in2="effect1_dropShadow_48_13012" result="shape"/>
</filter>
</defs>
</svg>
