<svg width="69" height="77" viewBox="0 0 69 77" fill="none" xmlns="http://www.w3.org/2000/svg">
<g filter="url(#filter0_d_2084_1315)">
<rect x="2" y="2" width="65" height="73" fill="#EEF0F4"/>
</g>
<rect x="2" y="2" width="2.56579" height="73" fill="#367645"/>
<path d="M26.3379 44H23.918L21.5938 40.2197L19.2695 44H17L20.3154 38.8457L17.2119 34.0059H19.5498L21.7031 37.6016L23.8154 34.0059H26.0986L22.9609 38.9619L26.3379 44ZM27.5957 44V34.0059H29.7148V42.25H33.7686V44H27.5957ZM41.4111 41.2246C41.4111 41.8171 41.2676 42.332 40.9805 42.7695C40.6934 43.207 40.2741 43.5443 39.7227 43.7812C39.1758 44.0182 38.5104 44.1367 37.7266 44.1367C37.3802 44.1367 37.0407 44.1139 36.708 44.0684C36.3799 44.0228 36.0632 43.9567 35.7578 43.8701C35.457 43.779 35.1699 43.6673 34.8965 43.5352V41.5664C35.3704 41.776 35.8626 41.9652 36.373 42.1338C36.8835 42.3024 37.3893 42.3867 37.8906 42.3867C38.237 42.3867 38.515 42.3411 38.7246 42.25C38.9388 42.1589 39.0938 42.0335 39.1895 41.874C39.2852 41.7145 39.333 41.5322 39.333 41.3271C39.333 41.0765 39.2487 40.8623 39.0801 40.6846C38.9115 40.5068 38.679 40.3405 38.3828 40.1855C38.0911 40.0306 37.7607 39.8643 37.3916 39.6865C37.1592 39.5771 36.9062 39.445 36.6328 39.29C36.3594 39.1305 36.0996 38.9368 35.8535 38.709C35.6074 38.4811 35.4046 38.2054 35.2451 37.8818C35.0902 37.5537 35.0127 37.1618 35.0127 36.7061C35.0127 36.109 35.1494 35.5986 35.4229 35.1748C35.6963 34.751 36.0859 34.4274 36.5918 34.2041C37.1022 33.9762 37.7038 33.8623 38.3965 33.8623C38.916 33.8623 39.4105 33.9238 39.8799 34.0469C40.3538 34.1654 40.8483 34.3385 41.3633 34.5664L40.6797 36.2139C40.2194 36.027 39.807 35.8835 39.4424 35.7832C39.0778 35.6784 38.7064 35.626 38.3281 35.626C38.0638 35.626 37.8382 35.6693 37.6514 35.7559C37.4645 35.8379 37.3232 35.9564 37.2275 36.1113C37.1318 36.2617 37.084 36.4372 37.084 36.6377C37.084 36.8747 37.1523 37.0752 37.2891 37.2393C37.4303 37.3988 37.64 37.5537 37.918 37.7041C38.2005 37.8545 38.5514 38.0299 38.9707 38.2305C39.4811 38.472 39.9163 38.7249 40.2764 38.9893C40.641 39.249 40.9212 39.5566 41.1172 39.9121C41.3132 40.263 41.4111 40.7005 41.4111 41.2246ZM51.3027 44H48.8828L46.5586 40.2197L44.2344 44H41.9648L45.2803 38.8457L42.1768 34.0059H44.5146L46.668 37.6016L48.7803 34.0059H51.0635L47.9258 38.9619L51.3027 44Z" fill="#367645"/>
<defs>
<filter id="filter0_d_2084_1315" x="0.2" y="0.4" width="68.6" height="76.6" filterUnits="userSpaceOnUse" color-interpolation-filters="sRGB">
<feFlood flood-opacity="0" result="BackgroundImageFix"/>
<feColorMatrix in="SourceAlpha" type="matrix" values="0 0 0 0 0 0 0 0 0 0 0 0 0 0 0 0 0 0 127 0" result="hardAlpha"/>
<feOffset dy="0.2"/>
<feGaussianBlur stdDeviation="0.9"/>
<feComposite in2="hardAlpha" operator="out"/>
<feColorMatrix type="matrix" values="0 0 0 0 0 0 0 0 0 0 0 0 0 0 0 0 0 0 0.25 0"/>
<feBlend mode="normal" in2="BackgroundImageFix" result="effect1_dropShadow_2084_1315"/>
<feBlend mode="normal" in="SourceGraphic" in2="effect1_dropShadow_2084_1315" result="shape"/>
</filter>
</defs>
</svg>
