<svg width="230" height="70" viewBox="0 0 230 70" fill="none" xmlns="http://www.w3.org/2000/svg">
<path d="M112.654 59.3879L109.544 48.7372H93.9081L90.7984 59.3879H81L96.1376 14.4591H107.256L122.452 59.3879H112.654ZM107.373 40.7798L104.264 30.3739C104.068 29.6802 103.804 28.7926 103.472 27.7112C103.159 26.6094 102.836 25.4974 102.504 24.3752C102.191 23.2326 101.936 22.2431 101.741 21.4065C101.545 22.2431 101.272 23.2837 100.919 24.5283C100.587 25.7525 100.264 26.9155 99.9514 28.0173C99.6384 29.1191 99.4135 29.9046 99.2766 30.3739L96.1963 40.7798H107.373Z" fill="white"/>
<path d="M136.827 59.3879H127.88V14.6427H152.464V22.4165H136.827V33.9548H151.378V41.6979H136.827V59.3879Z" fill="white"/>
<path d="M186.171 46.9621C186.171 49.6145 185.555 51.9202 184.323 53.8789C183.091 55.8377 181.292 57.3475 178.925 58.4085C176.578 59.4695 173.723 60 170.359 60C168.873 60 167.415 59.898 165.988 59.6939C164.58 59.4899 163.22 59.1941 161.91 58.8064C160.619 58.3983 159.387 57.8984 158.214 57.3067V48.4923C160.248 49.4309 162.36 50.2777 164.55 51.0326C166.741 51.7875 168.912 52.165 171.063 52.165C172.549 52.165 173.742 51.961 174.642 51.5529C175.561 51.1448 176.226 50.5837 176.637 49.8696C177.048 49.1555 177.253 48.3393 177.253 47.4212C177.253 46.299 176.891 45.34 176.168 44.5442C175.444 43.7485 174.446 43.0038 173.175 42.31C171.924 41.6163 170.506 40.8716 168.921 40.0758C167.924 39.5862 166.839 38.9945 165.665 38.3007C164.492 37.5866 163.377 36.7194 162.321 35.6993C161.265 34.6791 160.394 33.4447 159.71 31.996C159.045 30.5269 158.712 28.7722 158.712 26.7319C158.712 24.059 159.299 21.7738 160.473 19.8762C161.646 17.9787 163.318 16.5301 165.489 15.5303C167.68 14.5101 170.261 14 173.234 14C175.463 14 177.585 14.2754 179.6 14.8263C181.634 15.3568 183.756 16.1322 185.966 17.1524L183.032 24.5283C181.057 23.6917 179.287 23.049 177.722 22.6001C176.158 22.1308 174.564 21.8962 172.941 21.8962C171.806 21.8962 170.838 22.09 170.036 22.4777C169.234 22.845 168.628 23.3755 168.217 24.0692C167.807 24.7425 167.601 25.5281 167.601 26.4258C167.601 27.4868 167.895 28.3846 168.481 29.1191C169.088 29.8332 169.987 30.5269 171.18 31.2003C172.393 31.8736 173.899 32.6591 175.698 33.5569C177.889 34.6383 179.756 35.7707 181.301 36.9541C182.866 38.1171 184.069 39.4943 184.91 41.0858C185.751 42.6569 186.171 44.6157 186.171 46.9621Z" fill="white"/>
<path d="M220.202 59.3879L217.092 48.7372H201.456L198.346 59.3879H188.548L203.685 14.4591H214.804L230 59.3879H220.202ZM214.921 40.7798L211.811 30.3739C211.616 29.6802 211.352 28.7926 211.019 27.7112C210.706 26.6094 210.384 25.4974 210.051 24.3752C209.738 23.2326 209.484 22.2431 209.288 21.4065C209.093 22.2431 208.819 23.2837 208.467 24.5283C208.135 25.7525 207.812 26.9155 207.499 28.0173C207.186 29.1191 206.961 29.9046 206.824 30.3739L203.744 40.7798H214.921Z" fill="white"/>
<path fill-rule="evenodd" clip-rule="evenodd" d="M32.4031 0.0657996C32.1727 0.0993248 31.3333 0.216186 30.5102 0.316395C29.7036 0.41662 28.1728 0.717263 27.1359 0.984492C19.6629 2.83853 13.2105 6.78045 8.42052 12.4094C3.79515 17.838 1.11214 24.018 0.223312 31.2003C-0.780805 39.5352 1.63884 48.5884 6.72509 55.4532C12.5685 63.337 20.9469 68.281 30.8394 69.7177C33.2262 70.0517 37.901 70.1018 40.1396 69.801C46.6413 68.9325 52.5671 66.5607 57.4888 62.8694C58.8879 61.817 61.2088 59.7961 61.2088 59.6289C61.2088 59.5121 52.7316 51.2107 51.4643 50.0916L50.8718 49.5571L49.4068 50.7429C45.5057 53.9165 41.3247 55.5032 36.3537 55.7037C32.3703 55.8541 29.2264 55.1692 25.7369 53.4154C16.2885 48.6718 11.7948 38.082 15.0375 28.2438C16.7987 22.9323 20.3706 18.7063 25.3253 16.1008C28.6173 14.3804 31.6953 13.6287 35.5306 13.6455C41.3575 13.6455 46.0487 15.4994 50.526 19.5416L52.1062 20.9781L57.0279 16.1341C59.7274 13.4617 61.9659 11.2234 61.9989 11.1566C62.0646 10.973 59.25 8.45082 57.5216 7.16467C52.8141 3.64025 47.6125 1.41876 41.6211 0.366441C40.1396 0.115848 33.4237 -0.117987 32.4031 0.0657996ZM39.119 4.49215C42.7897 4.893 46.5591 5.97873 49.7688 7.54876C51.4971 8.40065 55.4642 10.9396 55.7111 11.3571C55.7769 11.474 55.0525 12.3091 53.9169 13.4449L52.0075 15.3492L51.0034 14.5974C46.0817 10.9061 39.366 9.0521 33.2262 9.65339C32.0904 9.75361 31.1028 9.85382 31.0206 9.87047C30.8394 9.90399 29.5721 5.32726 29.6708 5.04327C29.7366 4.87623 30.6419 4.70921 32.9793 4.42534C34.0986 4.27495 37.6211 4.32511 39.119 4.49215ZM26.1811 8.4174C26.5268 9.75361 26.7738 10.9229 26.7243 10.9897C26.675 11.0732 26.3623 11.2235 26.0166 11.3404C25.6874 11.4406 24.6339 11.9417 23.6793 12.4261C16.6014 16.0674 11.8772 22.2308 10.3628 29.8141C10.1654 30.7327 10.0172 31.7348 10.0172 32.0188V32.5367H7.30125C5.40832 32.5367 4.58532 32.4866 4.58532 32.3529C4.58532 31.6012 5.17788 28.3944 5.58931 26.9076C7.76213 19.074 13.0788 12.3927 20.4695 8.23362C21.4241 7.69914 25.21 5.99549 25.4898 5.97873C25.5392 5.97873 25.8518 7.08109 26.1811 8.4174ZM10.0665 37.8482C10.3628 40.6377 11.6302 44.3958 13.1281 47.0015C15.9265 51.8287 20.7165 56.0045 25.5392 57.8417C25.9672 58.0088 26.3129 58.1591 26.3129 58.1926C26.3129 58.226 26.0661 59.1781 25.7532 60.3138C25.4405 61.4329 25.1113 62.6689 25.0125 63.0531L24.8314 63.738L23.7945 63.3204C21.1937 62.2682 18.4943 60.6815 16.0252 58.7938C14.6095 57.7081 11.729 54.735 10.5603 53.1649C7.2189 48.6718 5.02969 43.0096 4.63465 37.865L4.53589 36.5288L9.93482 36.629L10.0665 37.8482ZM52.7153 57.1068C53.8511 58.226 54.7893 59.1947 54.7893 59.2616C54.7893 59.5121 51.6288 61.4664 49.6371 62.4352C47.1682 63.6545 44.8473 64.4393 42.0324 65.0575C40.0407 65.4751 39.6128 65.5085 35.9423 65.5251C32.7653 65.5251 31.679 65.4584 30.3787 65.2245C29.0452 64.9572 28.7819 64.857 28.8477 64.64C28.897 64.4729 29.2429 63.2369 29.6049 61.8505C29.9835 60.4808 30.2964 59.3283 30.3127 59.3117C30.3457 59.2949 30.6914 59.3617 31.0863 59.4787C31.5473 59.5956 33.2592 59.6624 35.5306 59.6624C38.7405 59.6624 39.4482 59.6123 40.8473 59.2949C44.0407 58.5767 47.5797 57.1236 49.6043 55.7039C50.0652 55.3864 50.4767 55.1191 50.5425 55.1025C50.5919 55.0857 51.5795 55.9879 52.7153 57.1068Z" fill="white"/>
<path fill-rule="evenodd" clip-rule="evenodd" d="M33.8341 21.3618C28.2869 22.0131 23.6286 26.1388 22.2788 31.6174C21.9004 33.1206 21.9004 35.8933 22.2624 37.4135C23.9908 44.7461 31.4966 49.2893 38.8214 47.4519C47.1669 45.3473 51.3972 36.4613 47.7267 28.7947C45.7678 24.719 41.7843 21.9464 37.0109 21.345C35.4965 21.1613 35.4637 21.1613 33.8341 21.3618ZM37.9163 25.4372C41.2412 26.3226 43.9901 29.062 44.8296 32.3189C45.1424 33.5049 45.1424 35.6762 44.8461 36.8121C44.0066 40.0525 41.2742 42.7917 38.048 43.6436C36.8299 43.961 34.2291 43.961 32.9946 43.6436C29.8178 42.8085 27.1348 40.1526 26.2294 36.9791C25.8015 35.4758 25.9495 32.653 26.5421 31.1997C27.6614 28.427 30.114 26.2557 33.0604 25.454C34.2621 25.1198 36.6982 25.1198 37.9163 25.4372Z" fill="white"/>
</svg>
